<?xml version="1.0" encoding="utf-8"?>
<!-- Generator: Adobe Illustrator 24.2.3, SVG Export Plug-In . SVG Version: 6.00 Build 0)  -->
<svg version="1.1" id="Layer_1" xmlns="http://www.w3.org/2000/svg" xmlns:xlink="http://www.w3.org/1999/xlink" x="0px" y="0px"
	 viewBox="0 0 60 60" style="enable-background:new 0 0 60 60;" xml:space="preserve">
<style type="text/css">
	.st0{fill:#82C560;}
	.st1{fill:#FFFFFF;}
	.st2{fill-rule:evenodd;clip-rule:evenodd;fill:none;}
</style>
<g>
	<circle class="st0" cx="30.4" cy="29.93" r="28"/>
</g>
<g>
	<path class="st1" d="M50.6,18.15c-0.16,0.58-0.53,1-0.95,1.42c-7.9,7.89-15.8,15.79-23.7,23.69c-0.37,0.37-0.76,0.69-1.3,0.76
		c-0.73,0.1-1.33-0.15-1.85-0.67c-3.38-3.39-6.76-6.77-10.14-10.15c-0.62-0.62-1.25-1.24-1.87-1.87c-0.56-0.58-0.74-1.27-0.47-2.03
		c0.26-0.76,0.82-1.21,1.62-1.32c0.66-0.09,1.22,0.13,1.68,0.59c0.59,0.58,1.17,1.17,1.76,1.75c2.87,2.87,5.74,5.74,8.61,8.62
		c0.1,0.1,0.17,0.23,0.25,0.35c0.06,0.02,0.13,0.03,0.19,0.05c0.09-0.15,0.15-0.32,0.27-0.43c7.44-7.45,14.88-14.89,22.32-22.34
		c0.47-0.47,0.99-0.79,1.67-0.75c0.87,0.06,1.47,0.51,1.78,1.33c0.04,0.1,0.07,0.19,0.11,0.29C50.6,17.67,50.6,17.91,50.6,18.15z"/>
</g>
<polygon class="st2" points="-186.53,-186.99 247.39,-186.99 247.39,246.93 -186.53,246.93 -186.53,-186.99 "/>
</svg>
