<?xml version="1.0" encoding="utf-8"?>
<!-- Generator: Adobe Illustrator 24.2.3, SVG Export Plug-In . SVG Version: 6.00 Build 0)  -->
<svg version="1.1" id="Layer_1" xmlns="http://www.w3.org/2000/svg" xmlns:xlink="http://www.w3.org/1999/xlink" x="0px" y="0px"
	 viewBox="0 0 60 60" style="enable-background:new 0 0 60 60;" xml:space="preserve">
<style type="text/css">
	.st0{fill:#FF3333;}
	.st1{fill-rule:evenodd;clip-rule:evenodd;fill:none;}
	.st2{fill:#FFFFFF;}
</style>
<g>
	<circle class="st0" cx="30.4" cy="29.93" r="28"/>
</g>
<polygon class="st1" points="-186.53,-186.99 247.39,-186.99 247.39,246.93 -186.53,246.93 -186.53,-186.99 "/>
<g>
	<path class="st2" d="M15.16,47.38c-0.64-0.63-1.28-1.25-1.94-1.9c4.84-4.85,9.65-9.65,14.45-14.46
		c-4.83-4.83-9.63-9.63-14.41-14.41c0.67-0.66,1.3-1.29,1.95-1.93c4.76,4.76,9.57,9.57,14.37,14.37c4.83-4.83,9.63-9.63,14.46-14.46
		c0.68,0.67,1.32,1.31,1.96,1.95c0,0.02,0,0.04,0,0.06c-0.08,0.06-0.17,0.12-0.24,0.19c-4.65,4.65-9.31,9.3-13.96,13.96
		c-0.08,0.08-0.16,0.16-0.24,0.25c0.08,0.09,0.13,0.15,0.19,0.21c4.67,4.68,9.35,9.35,14.02,14.03c0.06,0.06,0.15,0.11,0.22,0.16
		c0,0.02,0,0.04,0,0.06c-0.64,0.64-1.28,1.28-1.92,1.92c-0.02,0-0.04,0-0.06,0c-0.06-0.08-0.12-0.17-0.19-0.24
		c-4.65-4.65-9.3-9.31-13.95-13.96c-0.08-0.08-0.16-0.16-0.25-0.24c-0.09,0.08-0.15,0.13-0.21,0.19
		c-4.67,4.68-9.35,9.35-14.02,14.03c-0.06,0.06-0.11,0.15-0.16,0.22C15.2,47.38,15.18,47.38,15.16,47.38z"/>
</g>
<polygon class="st1" points="-42.73,-41.33 101.75,-41.33 101.75,103.15 -42.73,103.15 -42.73,-41.33 "/>
</svg>
